<?xml version="1.0" encoding="UTF-8"?>
<svg version="1.1" xmlns="http://www.w3.org/2000/svg" width="328" height="344">
<path d="M0 0 C108.24 0 216.48 0 328 0 C328 113.52 328 227.04 328 344 C219.76 344 111.52 344 0 344 C0 230.48 0 116.96 0 0 Z " fill="#FEFEFE" transform="translate(0,0)"/>
<path d="M0 0 C7.62877942 6.20028288 12.65724563 12.5678217 14.875 22.3125 C15.14939339 25.68169092 15.13803727 28.94416166 14.875 32.3125 C16.40447266 32.49619141 16.40447266 32.49619141 17.96484375 32.68359375 C35.57214514 35.51553733 50.04392964 45.52779623 62.875 57.3125 C63.69871094 58.05371094 64.52242187 58.79492188 65.37109375 59.55859375 C81.27814569 74.58345217 92.58699065 96.56436905 94.875 118.3125 C95.431875 118.39886719 95.98875 118.48523438 96.5625 118.57421875 C104.97631395 120.12338382 110.5095131 123.08516215 115.6875 130 C121.41320981 138.82386786 123.21418919 147.79643042 121.37109375 158.140625 C119.22444956 167.11973099 115.52621252 172.69968623 107.99609375 178.0234375 C103.44599963 180.78868807 99.2659403 182.3125 93.875 182.3125 C93.81183594 182.84875 93.74867188 183.385 93.68359375 183.9375 C91.07266344 200.64745398 81.53513143 215.58911732 70.875 228.3125 C70.359375 228.951875 69.84375 229.59125 69.3125 230.25 C52.12587484 251.17284802 24.27611392 263.70266928 -2.125 267.3125 C-7.82393927 267.83438827 -13.53165196 267.84803807 -19.25 267.8125 C-20.39403793 267.80985641 -20.39403793 267.80985641 -21.56118774 267.80715942 C-40.51712288 267.70985808 -57.20757994 263.97697453 -74.125 255.3125 C-74.73956055 254.99909668 -75.35412109 254.68569336 -75.98730469 254.36279297 C-98.87107553 242.47362835 -119.45290826 222.01869503 -128.125 197.3125 C-128.70941477 194.77578262 -129.27287161 192.23412068 -129.8125 189.6875 C-131.05635149 184.77885564 -131.05635149 184.77885564 -134.75390625 181.57421875 C-136.83925417 180.77296492 -138.95080352 180.03692776 -141.08203125 179.3671875 C-148.65796128 176.74138377 -153.66319755 170.32019726 -157.125 163.3125 C-160.73367316 154.3767379 -160.0691591 144.7201395 -156.44921875 135.91796875 C-152.0299126 127.22275577 -146.09355765 121.60867444 -137.0078125 118.11328125 C-133.85765874 116.53649517 -133.85765874 116.53649517 -132.83984375 113.16015625 C-132.58332031 111.91105469 -132.32679688 110.66195312 -132.0625 109.375 C-131.75261136 108.01542507 -131.43610299 106.65734348 -131.11328125 105.30078125 C-130.95424316 104.62611816 -130.79520508 103.95145508 -130.63134766 103.25634766 C-124.23102583 78.68577757 -104.72558552 56.09206986 -83.09716797 43.3984375 C-73.93696017 38.35453997 -64.00060324 34.681085 -54.125 31.3125 C-54.455 30.3225 -54.785 29.3325 -55.125 28.3125 C-55.92398514 20.66068074 -54.77959982 13.98936807 -50.23828125 7.69921875 C-37.78828394 -6.96700845 -16.37321273 -11.40221835 0 0 Z " fill="#FEFEFE" transform="translate(179.125,28.6875)"/>
<path d="M0 0 C1.265625 1.84765625 1.265625 1.84765625 2.25 4.0625 C2.75273437 5.16271484 2.75273437 5.16271484 3.265625 6.28515625 C3.50796875 6.85105469 3.7503125 7.41695312 4 8 C3.15574463 8.25523438 3.15574463 8.25523438 2.29443359 8.515625 C-14.14776345 13.55517347 -27.98917359 19.40773047 -41 31 C-41.74636719 31.66386719 -42.49273437 32.32773438 -43.26171875 33.01171875 C-57.68795928 46.63230536 -65.84246056 63.22209938 -70.17578125 82.37890625 C-70.44777344 83.57386719 -70.71976563 84.76882812 -71 86 C-71.2475 87.26585937 -71.495 88.53171875 -71.75 89.8359375 C-73 93 -73 93 -75.57421875 94.34765625 C-77.11529297 94.70150391 -77.11529297 94.70150391 -78.6875 95.0625 C-85.06492821 96.87479075 -89.55394313 98.99656159 -93.0859375 104.77734375 C-96.08076618 111.49510166 -96.10273069 119.43887277 -93.8125 126.375 C-90.85923455 133.07453737 -85.55090903 136.34489672 -79 139 C-77.71468253 139.37655785 -76.42306994 139.73257389 -75.125 140.0625 C-72 141 -72 141 -70 144 C-69.37027875 146.25840939 -68.79444707 148.53203093 -68.25 150.8125 C-64.69354055 164.67396023 -58.72785629 175.79854837 -50 187 C-49.43667969 187.74894531 -48.87335938 188.49789062 -48.29296875 189.26953125 C-40.43189587 199.04114336 -29.19980898 206.62409169 -18 212 C-17.11957031 212.43828125 -16.23914063 212.8765625 -15.33203125 213.328125 C0.39196689 220.86112267 16.00016622 223.35507829 33.3125 223.3125 C34.61123047 223.32861328 35.90996094 223.34472656 37.24804688 223.36132812 C65.09764799 223.37517676 90.44502489 212.68537882 110.5234375 193.6015625 C123.62267098 179.76693346 132.56932378 162.88658801 136.39453125 144.22265625 C137 142 137 142 139 140 C141.13671875 139.5078125 141.13671875 139.5078125 143.6875 139.125 C149.31482531 138.054673 153.82059201 136.80209598 157.50390625 132.06640625 C162.16854369 124.82359312 162.68872322 118.5482706 162 110 C160.76202631 104.81389401 158.18958958 101.81179521 153.9375 98.6875 C148.94568293 95.63417189 143.68607945 94.21161319 138 93 C137.01585586 89.13584965 136.06062414 85.29055611 135.24609375 81.38671875 C131.4470789 64.00668463 123.78274097 49.27980074 112 36 C111.33355469 35.23429687 110.66710937 34.46859375 109.98046875 33.6796875 C98.15102632 20.97860194 82.01445902 13.83752861 66 8 C66 5.03 66 2.06 66 -1 C85.10858174 0.1465149 101.36672136 11.47850759 115 24 C115.82371094 24.74121094 116.64742187 25.48242188 117.49609375 26.24609375 C133.40314569 41.27095217 144.71199065 63.25186905 147 85 C147.556875 85.08636719 148.11375 85.17273438 148.6875 85.26171875 C157.10131395 86.81088382 162.6345131 89.77266215 167.8125 96.6875 C173.53820981 105.51136786 175.33918919 114.48393042 173.49609375 124.828125 C171.34944956 133.80723099 167.65121252 139.38718623 160.12109375 144.7109375 C155.57099963 147.47618807 151.3909403 149 146 149 C145.93683594 149.53625 145.87367188 150.0725 145.80859375 150.625 C143.19766344 167.33495398 133.66013143 182.27661732 123 195 C122.484375 195.639375 121.96875 196.27875 121.4375 196.9375 C104.25087484 217.86034802 76.40111392 230.39016928 50 234 C44.30106073 234.52188827 38.59334804 234.53553807 32.875 234.5 C31.73096207 234.49735641 31.73096207 234.49735641 30.56381226 234.49465942 C11.60787712 234.39735808 -5.08257994 230.66447453 -22 222 C-22.61456055 221.68659668 -23.22912109 221.37319336 -23.86230469 221.05029297 C-46.74607553 209.16112835 -67.32790826 188.70619503 -76 164 C-76.58441477 161.46328262 -77.14787161 158.92162068 -77.6875 156.375 C-78.93135149 151.46635564 -78.93135149 151.46635564 -82.62890625 148.26171875 C-84.71425417 147.46046492 -86.82580352 146.72442776 -88.95703125 146.0546875 C-96.53296128 143.42888377 -101.53819755 137.00769726 -105 130 C-108.60867316 121.0642379 -107.9441591 111.4076395 -104.32421875 102.60546875 C-99.9049126 93.91025577 -93.96855765 88.29617444 -84.8828125 84.80078125 C-81.73265874 83.22399517 -81.73265874 83.22399517 -80.71484375 79.84765625 C-80.45832031 78.59855469 -80.20179687 77.34945312 -79.9375 76.0625 C-79.62761136 74.70292507 -79.31110299 73.34484348 -78.98828125 71.98828125 C-78.82924316 71.31361816 -78.67020508 70.63895508 -78.50634766 69.94384766 C-72.10738049 45.37847805 -52.60527114 22.78250728 -30.98095703 10.09033203 C-25.19736202 6.90700256 -19.14325318 4.39493996 -13 2 C-12.05382812 1.62746094 -11.10765625 1.25492188 -10.1328125 0.87109375 C-3.56892101 -1.52849281 -3.56892101 -1.52849281 0 0 Z " fill="#96DEFC" transform="translate(127,62)"/>
<path d="M0 0 C8.23274412 6.69115458 13.83217578 13.96990622 15.18359375 24.78125 C15.25402609 27.3333865 15.11725428 29.77069361 14.875 32.3125 C14.73384766 33.87871094 14.73384766 33.87871094 14.58984375 35.4765625 C12.9819272 48.80822013 7.16766103 58.75158313 -3.42578125 67.1328125 C-5.61104705 68.63494685 -7.82294183 69.99763074 -10.125 71.3125 C-10.74761719 71.69019531 -11.37023437 72.06789063 -12.01171875 72.45703125 C-22.09319338 78.10012082 -34.74011238 79.72350673 -46.125 78.3125 C-48.55859375 76.7890625 -48.55859375 76.7890625 -50.125 75.3125 C-49.25 68.4375 -49.25 68.4375 -48.125 67.3125 C-46.40359299 67.198163 -44.6813689 67.09095751 -42.95751953 67.02270508 C-28.54433173 66.45018032 -16.08664431 63.8568555 -5.75 53.0625 C0.93476865 44.95975013 3.43908969 35.7940736 2.875 25.3125 C1.99449823 21.97249608 0.69565611 19.23658406 -1.125 16.3125 C-1.99125 14.9203125 -1.99125 14.9203125 -2.875 13.5 C-8.51037912 8.02115919 -15.64905795 5.93370471 -23.359375 6.03515625 C-29.4378422 6.64472005 -35.1192405 8.68714925 -39.1875 13.375 C-42.34873223 18.16783597 -43.00181279 22.68710558 -42.125 28.3125 C-40.12320005 31.48234261 -40.12320005 31.48234261 -37.125 33.3125 C-34.63298093 33.80729687 -34.63298093 33.80729687 -32.125 33.3125 C-30.40850327 31.58007564 -30.40850327 31.58007564 -29.125 29.3125 C-27.75 27.0625 -27.75 27.0625 -26.125 25.3125 C-23.18980169 24.7988403 -21.79091539 24.8628281 -19.30859375 26.5390625 C-17.37562645 29.43532373 -18.04887671 31.77907503 -18.5546875 35.09375 C-19.68432753 39.48851395 -22.08685759 41.57820415 -25.6875 44.125 C-31.89203765 46.26838573 -38.39180513 46.41542395 -44.5 43.8125 C-48.84166442 41.31248422 -50.93742758 37.70535797 -53.125 33.3125 C-53.7746875 32.1059375 -53.7746875 32.1059375 -54.4375 30.875 C-56.30804434 23.90297109 -55.48919137 16.68844364 -52.125 10.3125 C-40.12196158 -6.3128265 -17.52046733 -12.20116036 0 0 Z " fill="#FDB9C2" transform="translate(179.125,28.6875)"/>
<path d="M0 0 C4.10997383 2.97023319 7.25331448 6.52556843 8.859375 11.34375 C9.73077109 18.68994992 9.43865002 24.44905363 4.828125 30.4296875 C0.43201484 34.70368349 -5.02811393 37.51183812 -11.203125 37.90625 C-17.38749222 37.02276897 -22.860008 35.20745964 -27.078125 30.40625 C-31.10336259 24.42938207 -31.99186252 19.49196253 -31.140625 12.34375 C-29.29626903 5.72508014 -25.0335464 1.6700279 -19.140625 -1.65625 C-12.54150309 -3.78667518 -6.05083183 -3.38846583 0 0 Z " fill="#FDD9D9" transform="translate(245.140625,188.65625)"/>
<path d="M0 0 C4.4230738 3.22660532 6.5404862 7.53942735 8.23828125 12.6328125 C8.67394308 18.18750082 8.09235362 22.83534216 5.23828125 27.6328125 C1.04992112 32.16147689 -2.57879945 35.39162234 -8.90625 35.87109375 C-18.80042919 36.07129546 -18.80042919 36.07129546 -23.32421875 34.0078125 C-28.81354374 28.65923943 -32.75576546 24.13010694 -33.07421875 16.1953125 C-32.910131 10.97041317 -31.67420391 7.5949726 -27.95703125 3.78125 C-19.12540428 -4.3171853 -10.74451461 -5.84849163 0 0 Z " fill="#FDDADA" transform="translate(98.76171875,189.3671875)"/>
<path d="M0 0 C1.66796875 1.57421875 1.66796875 1.57421875 3.1875 3.6875 C7.7090129 9.27989754 13.91640104 12.66423562 21 14 C31.81113602 14.82430949 40.74712437 13.4273005 49.328125 6.5625 C51.20863069 4.89985913 51.20863069 4.89985913 53.125 2.125 C55 0 55 0 58.125 -0.4375 C61 0 61 0 63 2 C63.68328137 5.18864639 63.51696875 7.16553597 61.78515625 9.9609375 C54.92971186 18.38103625 45.68804485 23.35989082 35 25 C20.48238612 26.10962654 9.25602182 23.47213398 -2.1484375 14.265625 C-5.12063067 11.52392845 -6.78768492 9.61335468 -8.125 5.75 C-8 3 -8 3 -6.875 1.125 C-4.37496984 -0.37501809 -2.880547 -0.3355554 0 0 Z " fill="#98DEFD" transform="translate(133,212)"/>
<path d="M0 0 C3.98797476 3.36783515 9.30784166 8.0292068 9.8359375 13.47265625 C9.85140625 14.26671875 9.866875 15.06078125 9.8828125 15.87890625 C9.90859375 16.67296875 9.934375 17.46703125 9.9609375 18.28515625 C9.85265625 18.97609375 9.744375 19.66703125 9.6328125 20.37890625 C6.6328125 22.37890625 6.6328125 22.37890625 4.13671875 22.34375 C0.65709649 21.00292832 0.12449511 19.27056064 -1.4296875 15.94140625 C-3.20745057 11.96668677 -3.20745057 11.96668677 -6.2734375 9.05078125 C-10.91119817 7.56254462 -15.59013166 7.7865543 -20.1796875 9.31640625 C-22.99641742 11.97218017 -24.09177703 14.7417787 -25.47265625 18.3203125 C-26.3671875 20.37890625 -26.3671875 20.37890625 -28.3671875 22.37890625 C-30.8046875 22.75390625 -30.8046875 22.75390625 -33.3671875 22.37890625 C-35.2421875 20.81640625 -35.2421875 20.81640625 -36.3671875 18.37890625 C-36.3671875 12.38465534 -34.2061255 7.85163118 -30.3671875 3.37890625 C-21.70817675 -3.86830927 -10.06973819 -6.5915436 0 0 Z " fill="#9ADFFD" transform="translate(125.3671875,155.62109375)"/>
<path d="M0 0 C4.88842418 4.15516056 8.46112622 8.52402642 9.03125 15.0234375 C8.71875 18.4609375 8.71875 18.4609375 7.53125 20.4609375 C5.71875 21.4609375 5.71875 21.4609375 3.21875 21.4609375 C-0.12035938 20.12529375 -0.66022893 18.63250047 -2.28125 15.4609375 C-5.25334182 10.21496594 -5.25334182 10.21496594 -10.28125 7.4609375 C-14.32779531 7.13978311 -17.18551262 7.11229379 -21.03125 8.3359375 C-24.0853251 11.22034176 -25.09926503 14.36434065 -26.484375 18.28125 C-27.28125 20.4609375 -27.28125 20.4609375 -28.28125 21.4609375 C-30.98094684 21.74511611 -32.69260091 21.78570941 -35.09375 20.4609375 C-37.01538749 17.22449541 -36.85885761 14.05936652 -36.28125 10.4609375 C-33.2709545 3.18605671 -28.12269318 -0.87202112 -20.96875 -3.9765625 C-13.2501667 -5.15397351 -6.47326783 -4.58965301 0 0 Z " fill="#9ADFFD" transform="translate(223.28125,156.5390625)"/>
<path d="M0 0 C-1.299375 0.8353125 -1.299375 0.8353125 -2.625 1.6875 C-10.10743919 6.75226426 -14.84426083 11.10426729 -16.6171875 20.1484375 C-16.94635352 22.2804205 -17.24518744 24.41739552 -17.5078125 26.55859375 C-17.75144531 27.76708984 -17.75144531 27.76708984 -18 29 C-18.66 29.33 -19.32 29.66 -20 30 C-20.4608328 20.3225112 -19.10378326 14.05242373 -12.625 6.625 C-4.97330097 -1.65776699 -4.97330097 -1.65776699 0 0 Z " fill="#F8C3CB" transform="translate(144,27)"/>
<path d="M0 0 C9.77741828 5.17475063 15.84775677 12.11398176 19.6015625 22.51953125 C20.06856024 25.4268211 19.57598057 26.5680012 18 29 C17.76925781 28.14277344 17.53851563 27.28554688 17.30078125 26.40234375 C14.0952301 15.1139811 14.0952301 15.1139811 6 7 C6 6.34 6 5.68 6 5 C5.195625 4.731875 4.39125 4.46375 3.5625 4.1875 C2.716875 3.795625 1.87125 3.40375 1 3 C0.67 2.01 0.34 1.02 0 0 Z " fill="#F8C1C9" transform="translate(174,26)"/>
<path d="M0 0 C-1.13719419 3.41158256 -2.04342944 4.11854601 -5 6 C-5.66 6 -6.32 6 -7 6 C-7.13277344 6.69480469 -7.26554688 7.38960937 -7.40234375 8.10546875 C-8.04102916 11.19870986 -8.78856364 14.25040398 -9.5625 17.3125 C-9.83191406 18.38113281 -10.10132813 19.44976562 -10.37890625 20.55078125 C-10.68634766 21.76314453 -10.68634766 21.76314453 -11 23 C-11.33 23 -11.66 23 -12 23 C-12.51006928 16.08572751 -12.16583352 10.7280211 -8 5 C-3.23114355 0 -3.23114355 0 0 0 Z " fill="#F9E0E1" transform="translate(226,188)"/>
<path d="M0 0 C0.66 0 1.32 0 2 0 C1.79503906 0.75023437 1.59007812 1.50046875 1.37890625 2.2734375 C-0.19696683 8.26024718 -1.36569261 13.94815954 -1.69140625 20.13671875 C-1.84416016 21.05904297 -1.84416016 21.05904297 -2 22 C-2.66 22.33 -3.32 22.66 -4 23 C-4.53847315 14.42930243 -3.4673054 7.86335332 0 0 Z " fill="#A2E3F9" transform="translate(24,162)"/>
<path d="M0 0 C2.06301695 2.64733966 3.79039972 5.29349746 5.375 8.25 C7.45935576 12.09461962 9.73414378 15.7467101 12.1796875 19.37109375 C12.45039062 19.90863281 12.72109375 20.44617188 13 21 C12.67 21.66 12.34 22.32 12 23 C6.56242478 16.02425213 2.30503578 9.21492067 -1 1 C-0.67 0.67 -0.34 0.34 0 0 Z " fill="#A1E1F9" transform="translate(54,229)"/>
<path d="M0 0 C0 0.66 0 1.32 0 2 C2.97 2.33 5.94 2.66 9 3 C9 3.66 9 4.32 9 5 C7.58297487 4.85769192 6.1663904 4.71099254 4.75 4.5625 C3.56664062 4.44068359 3.56664062 4.44068359 2.359375 4.31640625 C0.17635361 4.02365007 -1.8773182 3.57935581 -4 3 C-4 2.34 -4 1.68 -4 1 C-2 0 -2 0 0 0 Z " fill="#A0E1F9" transform="translate(132,290)"/>
<path d="M0 0 C0 0.66 0 1.32 0 2 C-3.96 3.98 -7.92 5.96 -12 8 C-12.33 7.34 -12.66 6.68 -13 6 C-11.21118264 4.99491199 -9.41885304 3.99607264 -7.625 3 C-6.62726563 2.443125 -5.62953125 1.88625 -4.6015625 1.3125 C-2 0 -2 0 0 0 Z " fill="#9FE0F8" transform="translate(225,277)"/>
<path d="M0 0 C0.78375 0.04125 1.5675 0.0825 2.375 0.125 C2.375 1.115 2.375 2.105 2.375 3.125 C1.2303125 3.2796875 1.2303125 3.2796875 0.0625 3.4375 C-2.79559424 4.16864039 -3.78242885 4.89451913 -5.625 7.125 C-4.53409091 0.21590909 -4.53409091 0.21590909 0 0 Z " fill="#A7E3FC" transform="translate(130.625,211.875)"/>
<path d="M0 0 C5.22245322 7.83367983 5.22245322 7.83367983 4.58203125 11.19140625 C4.38996094 11.78824219 4.19789062 12.38507813 4 13 C3.13372601 11.40233897 2.28233535 9.79660056 1.4375 8.1875 C0.96183594 7.29417969 0.48617188 6.40085938 -0.00390625 5.48046875 C-1 3 -1 3 0 0 Z " fill="#A3E3FA" transform="translate(22,186)"/>
<path d="M0 0 C0.66 0.33 1.32 0.66 2 1 C-0.31 3.97 -2.62 6.94 -5 10 C-5.66 9.67 -6.32 9.34 -7 9 C-4.69 6.03 -2.38 3.06 0 0 Z " fill="#A1E4FB" transform="translate(65,101)"/>
<path d="M0 0 C0.33 0.99 0.66 1.98 1 3 C-0.9375 5.6875 -0.9375 5.6875 -3 8 C-3.99 7.67 -4.98 7.34 -6 7 C-4.02 4.69 -2.04 2.38 0 0 Z " fill="#A4E3F9" transform="translate(31,153)"/>
<path d="M0 0 C3.93673644 1.31224548 6.22719294 2.91910327 9 6 C5.51669784 5.35494404 2.90567134 4.01782732 0 2 C0 1.34 0 0.68 0 0 Z " fill="#9EE4FC" transform="translate(218,79)"/>
<path d="M0 0 C6.75 1.625 6.75 1.625 9 5 C5.85262818 4.30058404 2.97411124 3.23921302 0 2 C0 1.34 0 0.68 0 0 Z " fill="#FAC1C9" transform="translate(166,34)"/>
</svg>
